<svg width="512" height="512" xmlns="http://www.w3.org/2000/svg">

 <g>
  <title>background</title>
  <rect fill="none" id="canvas_background" height="402" width="582" y="-1" x="-1"/>
 </g>
 <g>
  <title>Layer 1</title>
  <path fill="#000000" id="svg_3" d="m138.98,151.84l-70.45,0c-6.78,0 -12.28,-5.5 -12.28,-12.28l0,-47.67c0,-6.78 5.5,-12.28 12.28,-12.28l70.45,0c6.78,0 12.28,5.5 12.28,12.28l0,47.66c0,6.79 -5.5,12.29 -12.28,12.29z" class="st0"/>
  <path fill="#000000" id="svg_5" d="m443.47,151.054728l-211.98,0c-6.78,0 -12.28,-5.5 -12.28,-12.28l0,-47.67c0,-6.78 5.5,-12.28 12.28,-12.28l211.98,0c6.78,0 12.28,5.5 12.28,12.28l0,47.66c0,6.79 -5.5,12.29 -12.28,12.29z" class="st0"/>
  <path fill="#000000" id="svg_7" d="m138.98,292.11l-70.45,0c-6.78,0 -12.28,-5.5 -12.28,-12.28l0,-47.66c0,-6.78 5.5,-12.28 12.28,-12.28l70.45,0c6.78,0 12.28,5.5 12.28,12.28l0,47.66c0,6.78 -5.5,12.28 -12.28,12.28z" class="st0"/>
  <path fill="#000000" id="svg_9" d="m443.47,292.11l-211.98,0c-6.78,0 -12.28,-5.5 -12.28,-12.28l0,-47.66c0,-6.78 5.5,-12.28 12.28,-12.28l211.98,0c6.78,0 12.28,5.5 12.28,12.28l0,47.66c0,6.78 -5.5,12.28 -12.28,12.28z" class="st0"/>
  <path fill="#000000" id="svg_11" d="m138.98,432.39l-70.45,0c-6.78,0 -12.28,-5.5 -12.28,-12.28l0,-47.66c0,-6.78 5.5,-12.28 12.28,-12.28l70.45,0c6.78,0 12.28,5.5 12.28,12.28l0,47.66c0,6.78 -5.5,12.28 -12.28,12.28z" class="st0"/>
  <path fill="#000000" id="svg_13" d="m443.47,432.39l-211.98,0c-6.78,0 -12.28,-5.5 -12.28,-12.28l0,-47.66c0,-6.78 5.5,-12.28 12.28,-12.28l211.98,0c6.78,0 12.28,5.5 12.28,12.28l0,47.66c0,6.78 -5.5,12.28 -12.28,12.28z" class="st0"/>
 </g>
</svg>